<svg fill="#18BFFF" role="img" viewBox="0 0 24 24" xmlns="http://www.w3.org/2000/svg"><title>Airtable</title><path d="M11.992 1.966c-.434 0-.869.086-1.28.259L1.773 5.903a.76.76 0 0 0 .002 1.412l8.997 3.682a3.274 3.274 0 0 0 2.457-.001l8.994-3.681a.76.76 0 0 0 .002-1.412L13.27 2.225a3.286 3.286 0 0 0-1.278-.259Zm-9.14 6.617a.81.81 0 0 0-.322.066.755.755 0 0 0-.444.692v7.873c0 .3.18.57.456.69l8.558 3.72a.766.766 0 0 0 1.074-.702v-7.989a.812.812 0 0 0-.51-.742L2.93 8.636a.55.55 0 0 0-.077-.053Zm18.327.003-.074.045-8.793 3.622a.812.812 0 0 0-.51.742v7.989c0 .584.578.992 1.108.782l8.558-3.39c.288-.114.481-.39.481-.702V9.34a.755.755 0 0 0-.77-.754Z"/></svg>
