<svg fill="#6D00CC" role="img" viewBox="0 0 24 24" xmlns="http://www.w3.org/2000/svg"><title>Make</title><path d="M5.633 0A5.635 5.635 0 0 0 .079 4.559L5.46 9.323c1.152.967 1.152 2.387 0 3.354L.079 17.44A5.634 5.634 0 0 0 5.633 22h.925a5.634 5.634 0 0 0 3.614-1.313l6.545-5.493a5.633 5.633 0 0 0 0-8.388L10.172 1.313A5.634 5.634 0 0 0 6.558 0zm12.734 0a5.635 5.635 0 0 0-3.614 1.313l-.063.053 4.96 4.163a5.633 5.633 0 0 1 0 8.388l-4.96 4.163.063.053A5.634 5.634 0 0 0 18.367 22h.925a5.634 5.634 0 0 0 3.614-1.313l.063-.053c1.152-.967 1.152-2.387 0-3.354l-.063-.053a5.633 5.633 0 0 1 0-8.388l.063-.053c1.152-.967 1.152-2.387 0-3.354l-.063-.053A5.634 5.634 0 0 0 19.292 0Z"/></svg>
