<svg xmlns="http://www.w3.org/2000/svg" viewBox="0 0 24 24" fill="#FF6D5A">
<path d="M21.474 5.684c-1.177 0-2.166.805-2.447 1.895h-2.895c-1.235 0-2.289.893-2.492 2.111l-.104.623a1.263 1.263 0 0 1-1.246 1.055h-1.001c-.28-1.09-1.27-1.895-2.447-1.895s-2.166.805-2.447 1.895H4.973c-.28-1.09-1.27-1.895-2.447-1.895C1.131 9.474 0 10.605 0 12s1.131 2.526 2.526 2.526c1.177 0 2.166-.805 2.447-1.895h1.422c.28 1.09 1.27 1.895 2.447 1.895s2.166-.805 2.447-1.895h1.001a1.263 1.263 0 0 1 1.246 1.055l.104.623c.203 1.218 1.257 2.111 2.492 2.111h.369c.28 1.09 1.27 1.895 2.447 1.895 1.395 0 2.526-1.131 2.526-2.526s-1.131-2.526-2.526-2.526c-1.177 0-2.166.805-2.447 1.895h-.369a1.263 1.263 0 0 1-1.246-1.055l-.104-.623A2.52 2.52 0 0 0 13.961 12c.354-.416.615-.925.821-1.479l.104-.623a1.263 1.263 0 0 1 1.246-1.055h2.895c.28 1.09 1.27 1.895 2.447 1.895 1.395 0 2.526-1.131 2.526-2.526s-1.131-2.526-2.526-2.526z"/>
</svg>
