<svg xmlns="http://www.w3.org/2000/svg" viewBox="0 0 200 200">
  <path fill="#FFFFFF" d="M45.5 30c5 4.1 6.9 3.8 16.3 3.1l88.8-5.3c1.9 0 .3-1.9-.3-2.2l-14.8-10.9c-2.8-2.2-6.6-4.7-13.8-4.1L38.2 20.3c-3.1.3-3.8 1.9-2.5 3.1zm5.3 20.7v93.5c0 5 2.5 6.9 8.2 6.6l97.5-5.9c5.6-.3 6.2-3.8 6.2-7.8V44c0-4.1-1.6-6.3-5-5.9l-102 6.2c-3.7.3-5 2.2-5 6.3zm96.2 5c.6 2.8 0 5.6-2.8 5.9l-4.7.9v69.1c-4.1 2.2-7.8 3.4-11 3.4-5 0-6.2-1.6-10-6.2l-30.7-48.2v46.6l9.7 2.2s0 5.6-7.8 5.6l-21.6 1.3c-.6-1.3 0-4.4 2.2-5l5.6-1.6v-61.6l-7.8-.6c-.6-2.8 1-6.9 5.6-7.2l23.2-1.6 31.9 48.8V70l-8.2-.9c-.6-3.4 1.9-5.9 5-6.2zm-128.5-73L105.8.3c9.4-.6 11.9 0 17.8 4.4l24.4 17.2c4.4 3.1 5.9 3.8 5.9 7.2v103.2c0 6.6-2.5 10.3-10.9 10.9l-103.8 6.2c-6.2.3-9.4-1-12.5-5l-19.1-24.7C4 115.3 2.5 112.2 2.5 107.5V23.4c0-5.9 2.5-10.6 10-11.2z"/>
</svg>
