<svg xmlns="http://www.w3.org/2000/svg" viewBox="0 0 64 64">
  <rect width="64" height="64" rx="14" fill="#10A37F"/>
  <g transform="translate(12,12) scale(1.67)" fill="#fff">
    <path d="M22.282 9.821a5.985 5.985 0 0 0-.516-4.91 6.046 6.046 0 0 0-6.51-2.9A6.065 6.065 0 0 0 4.981 4.18a5.985 5.985 0 0 0-3.998 2.9 6.046 6.046 0 0 0 .743 7.097 5.98 5.98 0 0 0 .51 4.911 6.051 6.051 0 0 0 6.515 2.9A5.985 5.985 0 0 0 13.26 24a6.056 6.056 0 0 0 5.772-4.206 5.99 5.99 0 0 0 3.997-2.9 6.056 6.056 0 0 0-.747-7.073z"/>
  </g>
</svg>
